<svg 
    xmlns:dc="http://purl.org/dc/elements/1.1/" 
    xmlns:cc="http://creativecommons.org/ns#" 
    xmlns:rdf="http://www.w3.org/1999/02/22-rdf-syntax-ns#" 
    xmlns:svg="http://www.w3.org/2000/svg" 
    xmlns="http://www.w3.org/2000/svg" 
    xmlns:sodipodi="http://sodipodi.sourceforge.net/DTD/sodipodi-0.dtd" 
    xmlns:inkscape="http://www.inkscape.org/namespaces/inkscape" 
    version="1.1" x="10px" y="10px" viewBox="0 0 100 125"
>
    <g transform="translate(0,-952.36218)">
        <path style="color:#000000;enable-background:accumulate;" 
            d="M 49.78125,962.36428 C 48.7985,962.47221 47.97874,963.40651 48,964.39441 l 0,24.48652 c -8.16023,9.65241 -16.36289,13.77607 -25.15625,17.77147 18.16863,1.6535 36.36274,1.6357 54.53125,-0.031 C 69.04946,1002.6243 60.25599,998.50774 52,988.84994 l 0,-10.33806 c 4.96615,0.50758 8.92704,2.52597 16,-0.12493 l 0,-11.9934 c -5.33319,1.77675 -10.66681,0.42284 -16,0.0937 l 0,-2.0926 c 0.0167,-1.06745 -0.96321,-2.04683 -2.03125,-2.03013 -0.0625,-0.003 -0.12505,-0.003 -0.1875,0 z M 20,1008.3702 c -2.216,0 -4,1.783 -4,3.9978 0,2.2148 1.784,3.9978 4,3.9978 20,1.9989 40,1.9989 60,0 2.216,0 4,-1.783 4,-3.9978 0,-2.2148 -1.784,-3.9978 -4,-3.9978 -20,1.9989 -40,1.9989 -60,0 z m -0.0625,9.9945 c -0.19668,8.242 -1.25056,13.0425 -3.9375,19.4268 8.359,2.2205 16.59041,3.6412 24.78125,4.2477 6.66302,-6.3637 11.30548,-16.8261 12.09375,-22.2065 -11.50465,-0.1003 -23.15482,-0.5237 -32.9375,-1.468 z m 60.0625,0 c -7.69017,0.7639 -15.37616,1.2288 -23.0625,1.4055 -0.23529,2.7936 -1.17034,5.6952 -2.875,9.4011 0.8428,4.7959 3.32536,8.9513 6.25,12.7742 7.82901,-0.6482 15.70108,-2.0324 23.6875,-4.154 -2.59394,-7.0524 -3.78801,-13.8742 -4,-19.4268 z m -28.78125,15.8975 c -1.24295,1.8761 -3.40693,5.1556 -5.65625,8.0268 3.34491,0.1194 6.68558,0.088 10.03125,-0.062 -1.69156,-2.493 -3.25035,-5.2916 -4.375,-7.9643 z" 
            fill="#000000" 
            stroke="none" 
            marker="none" 
            visibility="visible" 
            display="inline" 
            overflow="visible"/
        >
    </g>
    <text x="0" 
        y="115" 
        fill="#000000" 
        font-size="5px" 
        font-weight="bold" 
        font-family="'Helvetica Neue', Helvetica, Arial-Unicode, Arial, Sans-serif"
    >
        Created by AFY Studio
    </text>
    <text 
        x="0" 
        y="120" 
        fill="#000000" 
        font-size="5px" 
        font-weight="bold" 
        font-family="'Helvetica Neue', Helvetica, Arial-Unicode, Arial, Sans-serif"
    >
        from the Noun Project
    </text>
</svg>